<svg xmlns="http://www.w3.org/2000/svg" width="16" height="13" fill="none" viewBox="0 0 16 13">
  <path fill="#000" d="M10.838 1.931a2.054 2.054 0 0 0-2.055 2.017l-.02 1.116a.425.425 0 0 1-.481.412l-1.106-.15c-1.455-.198-2.849-.868-4.186-1.982-.424 2.344.404 3.968 2.396 5.222l1.238.777a.425.425 0 0 1 .024.704l-1.128.823c.67.042 1.308.013 1.836-.092 3.342-.668 5.564-3.182 5.564-7.33 0-.339-.717-1.517-2.082-1.517Zm-3.471 1.99a3.47 3.47 0 0 1 5.939-2.376c.504-.003.932.124 1.89-.457-.237 1.162-.354 1.666-.86 2.36 0 5.413-3.326 8.045-6.702 8.719-2.315.462-5.681-.297-6.646-1.304.492-.039 2.49-.253 3.644-1.098C3.655 9.12-.233 6.833 2.322.682c1.2 1.4 2.415 2.354 3.648 2.86.82.336 1.021.329 1.397.38Z"/>
</svg>
